<?xml version="1.0" encoding="UTF-8" standalone="no"?>
<!DOCTYPE svg PUBLIC "-//W3C//DTD SVG 1.1//EN"
 "http://www.w3.org/Graphics/SVG/1.1/DTD/svg11.dtd">
<!-- Generated by graphviz version 2.38.0 (20140413.2041)
 -->
<!-- Title: %3 Pages: 1 -->
<svg width="524pt" height="116pt"
 viewBox="0.00 0.00 524.49 116.00" xmlns="http://www.w3.org/2000/svg" xmlns:xlink="http://www.w3.org/1999/xlink">
<g id="graph0" class="graph" transform="scale(1 1) rotate(0) translate(4 112)">
<title>%3</title>
<polygon fill="white" stroke="none" points="-4,4 -4,-112 520.49,-112 520.49,4 -4,4"/>
<!-- A -->
<g id="node1" class="node"><title>A</title>
<ellipse fill="none" stroke="black" cx="230.746" cy="-90" rx="124.278" ry="18"/>
<text text-anchor="middle" x="230.746" y="-86.3" font-family="Times,serif" font-size="14.00">Computational Scientist</text>
</g>
<!-- B -->
<g id="node2" class="node"><title>B</title>
<ellipse fill="none" stroke="black" cx="48.7457" cy="-18" rx="48.9926" ry="18"/>
<text text-anchor="middle" x="48.7457" y="-14.3" font-family="Times,serif" font-size="14.00">Reading</text>
</g>
<!-- A&#45;&#45;B -->
<g id="edge1" class="edge"><title>A&#45;&#45;B</title>
<path fill="none" stroke="black" d="M188.991,-72.9406C156.248,-60.347 111.332,-43.0717 81.2377,-31.4969"/>
</g>
<!-- C -->
<g id="node3" class="node"><title>C</title>
<ellipse fill="none" stroke="black" cx="161.746" cy="-18" rx="46.2923" ry="18"/>
<text text-anchor="middle" x="161.746" y="-14.3" font-family="Times,serif" font-size="14.00">Writing</text>
</g>
<!-- A&#45;&#45;C -->
<g id="edge2" class="edge"><title>A&#45;&#45;C</title>
<path fill="none" stroke="black" d="M214.043,-72.055C203.035,-60.8874 188.698,-46.3427 177.82,-35.307"/>
</g>
<!-- D -->
<g id="node4" class="node"><title>D</title>
<ellipse fill="none" stroke="black" cx="300.746" cy="-18" rx="74.9875" ry="18"/>
<text text-anchor="middle" x="300.746" y="-14.3" font-family="Times,serif" font-size="14.00">Programming</text>
</g>
<!-- A&#45;&#45;D -->
<g id="edge3" class="edge"><title>A&#45;&#45;D</title>
<path fill="none" stroke="black" d="M247.691,-72.055C258.696,-61.0492 272.982,-46.7636 283.957,-35.789"/>
</g>
<!-- E -->
<g id="node5" class="node"><title>E</title>
<ellipse fill="none" stroke="black" cx="454.746" cy="-18" rx="61.99" ry="18"/>
<text text-anchor="middle" x="454.746" y="-14.3" font-family="Times,serif" font-size="14.00">Presenting</text>
</g>
<!-- A&#45;&#45;E -->
<g id="edge4" class="edge"><title>A&#45;&#45;E</title>
<path fill="none" stroke="black" d="M280.459,-73.4647C320.673,-60.8979 376.595,-43.422 414.149,-31.6866"/>
</g>
</g>
</svg>
